/vscmnt/brussel_pixiu_data/_data_brussel/112/vsc11236/PredSimResults/SUBJ06mtu3D/worker1.mot
version=1
nRows=4
nColumns=50
inDegrees=yes
endheader
                time	         pelvis_tilt	         pelvis_list	     pelvis_rotation	           pelvis_tx	           pelvis_ty	           pelvis_tz	       hip_flexion_r	     hip_adduction_r	      hip_rotation_r	        knee_angle_r	       ankle_angle_r	         mtp_angle_r	       hip_flexion_l	     hip_adduction_l	      hip_rotation_l	        knee_angle_l	       ankle_angle_l	         mtp_angle_l	    lumbar_extension	      lumbar_bending	     lumbar_rotation	 ercspn_r/activation	 intobl_r/activation	 extobl_r/activation	    abd_r/activation	    add_r/activation	hamstrings_r/activation	bifemsh_r/activation	glut_max_r/activation	iliopsoas_r/activation	rect_fem_r/activation	  vasti_r/activation	gastroc_r/activation	 soleus_r/activation	tib_ant_r/activation	 ercspn_l/activation	 intobl_l/activation	 extobl_l/activation	    abd_l/activation	    add_l/activation	hamstrings_l/activation	bifemsh_l/activation	glut_max_l/activation	iliopsoas_l/activation	rect_fem_l/activation	  vasti_l/activation	gastroc_l/activation	 soleus_l/activation	tib_ant_l/activation	
          1.92190376	         -7.73542544	          4.63188502	         -8.94810613	          2.15253221	          0.92770797	          0.01531360	        -10.27214192	         -4.93990135	          6.51222537	         -6.62815461	         10.31913664	         28.49985314	         30.95175298	          0.78273184	         -5.52754743	         -1.26760661	          6.46110840	          0.20799307	         -1.55627776	         -2.57636210	          3.08975335	          0.05392927	          0.00999999	          0.00999999	          0.05708239	          0.00999999	          0.01659619	          0.13252510	          0.04703772	          0.40212622	          0.01213544	          0.00999999	          0.33868193	          0.31732486	          0.01787175	          0.10265142	          0.18456798	          0.03126496	          0.01213544	          0.08435161	          0.07421410	          0.23122841	          0.01208422	          0.09855260	          0.00999999	          0.00999999	          0.01879653	          0.00999999	          0.28039812	
          1.93471645	         -7.83695299	          4.56810282	         -9.01749310	          2.16957274	          0.92559827	          0.01502973	        -10.49812232	         -4.92727414	          6.15063730	         -7.95810778	          9.71277784	         30.41926619	         30.93165875	          0.86866679	         -5.33742382	         -2.68162447	          6.02812974	          0.21245577	         -1.28200789	         -2.90867426	          3.25914158	          0.07898824	          0.00999999	          0.00999999	          0.04703772	          0.01407560	          0.01610915	          0.10920495	          0.03876059	          0.38424241	          0.00999999	          0.01196142	          0.31087988	          0.29942092	          0.01472690	          0.08458807	          0.15576559	          0.02576334	          0.00999999	          0.09165151	          0.06583680	          0.19053965	          0.04708688	          0.08121051	          0.00999999	          0.00999999	          0.02631960	          0.01767729	          0.28852085	
          1.94752914	         -7.91851533	          4.50063280	         -9.03042816	          2.18699276	          0.92372061	          0.01465258	        -10.63750083	         -4.90416305	          5.76108661	         -9.51277063	          8.94281277	         32.37637188	         30.76275852	          0.95684273	         -5.14208887	         -4.08359540	          5.54461525	          0.19965817	         -0.99225384	         -3.25258121	          3.40784804	          0.09597985	          0.00999999	          0.00999999	          0.03876060	          0.01159874	          0.01327446	          0.08998839	          0.03193998	          0.37505870	          0.01281975	          0.02168816	          0.26963146	          0.27675021	          0.01213544	          0.07572990	          0.12835586	          0.02122982	          0.05319546	          0.07552379	          0.06520635	          0.15701080	          0.09230789	          0.06692007	          0.00999999	          0.00999999	          0.02168820	          0.01456666	          0.34303148	
          1.96034183	         -7.98214587	          4.42291677	         -8.98565948	          2.20455792	          0.92231833	          0.01416598	        -10.61224936	         -4.85659010	          5.34497168	        -11.38541644	          7.95260239	         34.34672861	         30.47201315	          1.06251530	         -4.97875616	         -5.27142623	          4.89690196	          0.17716689	         -0.71100232	         -3.59647380	          3.52880436	          0.12910200	          0.00999999	          0.00999999	          0.03193998	          0.02004465	          0.01758268	          0.07415333	          0.02631957	          0.36337157	          0.01472689	          0.01787175	          0.22218500	          0.23643094	          0.00999999	          0.08274419	          0.10576936	          0.01749405	          0.10819995	          0.09889481	          0.06006125	          0.12938195	          0.12966029	          0.05514429	          0.00999999	          0.00999999	          0.01787177	          0.01200340	          0.37643048	
